<svg xmlns="http://www.w3.org/2000/svg" xmlns:xlink="http://www.w3.org/1999/xlink" contentStyleType="text/css" data-diagram-type="CLASS" height="504px" preserveAspectRatio="none" style="width:1957px;height:504px;background:#FFFFFF;" version="1.1" viewBox="0 0 1957 504" width="1957px" zoomAndPan="magnify"><defs/><g><!--cluster View--><g id="cluster_View"><rect fill="none" height="131.59" rx="2.5" ry="2.5" style="stroke:#000000;stroke-width:1.5;" width="1923" x="28" y="7"/><text fill="#000000" font-family="sans-serif" font-size="14" font-weight="bold" lengthAdjust="spacing" textLength="38.0625" x="970.4688" y="21.9951">View</text></g><!--cluster ViewModel--><g id="cluster_ViewModel"><rect fill="none" height="131.6" rx="2.5" ry="2.5" style="stroke:#000000;stroke-width:1.5;" width="1266" x="7" y="162.59"/><text fill="#000000" font-family="sans-serif" font-size="14" font-weight="bold" lengthAdjust="spacing" textLength="85.9277" x="597.0361" y="177.5851">ViewModel</text></g><!--cluster Model--><g id="cluster_Model"><rect fill="none" height="180.48" rx="2.5" ry="2.5" style="stroke:#000000;stroke-width:1.5;" width="469" x="568" y="318.19"/><text fill="#000000" font-family="sans-serif" font-size="14" font-weight="bold" lengthAdjust="spacing" textLength="47.8652" x="778.5674" y="333.1851">Model</text></g><!--class ContentView--><g id="elem_ContentView"><rect codeLine="4" fill="#F1F1F1" height="64.2969" id="ContentView" rx="2.5" ry="2.5" style="stroke:#181818;stroke-width:0.5;" width="121.209" x="348.4" y="50.15"/><ellipse cx="363.4" cy="66.15" fill="#ADD1B2" rx="11" ry="11" style="stroke:#181818;stroke-width:1;"/><path d="M366.3688,71.7906 Q365.7906,72.0875 365.15,72.2281 Q364.5094,72.3844 363.8063,72.3844 Q361.3063,72.3844 359.9781,70.7438 Q358.6656,69.0875 358.6656,65.9625 Q358.6656,62.8375 359.9781,61.1813 Q361.3063,59.525 363.8063,59.525 Q364.5094,59.525 365.15,59.6813 Q365.8063,59.8375 366.3688,60.1344 L366.3688,62.8531 Q365.7438,62.275 365.15,62.0094 Q364.5563,61.7281 363.9313,61.7281 Q362.5875,61.7281 361.9,62.8063 Q361.2125,63.8688 361.2125,65.9625 Q361.2125,68.0563 361.9,69.1344 Q362.5875,70.1969 363.9313,70.1969 Q364.5563,70.1969 365.15,69.9313 Q365.7438,69.65 366.3688,69.0719 L366.3688,71.7906 Z " fill="#000000"/><text fill="#000000" font-family="sans-serif" font-size="14" lengthAdjust="spacing" textLength="89.209" x="377.4" y="70.9967">ContentView</text><line style="stroke:#181818;stroke-width:0.5;" x1="349.4" x2="468.609" y1="82.15" y2="82.15"/><line style="stroke:#181818;stroke-width:0.5;" x1="349.4" x2="468.609" y1="90.15" y2="90.15"/><ellipse cx="359.4" cy="103.7984" fill="#84BE84" rx="3" ry="3" style="stroke:#038048;stroke-width:1;"/><text fill="#000000" font-family="sans-serif" font-size="14" lengthAdjust="spacing" textLength="60.6348" x="368.4" y="107.1451">display()</text></g><!--class LoginView--><g id="elem_LoginView"><rect codeLine="7" fill="#F1F1F1" height="80.5938" id="LoginView" rx="2.5" ry="2.5" style="stroke:#181818;stroke-width:0.5;" width="103.5449" x="44.23" y="42"/><ellipse cx="59.23" cy="58" fill="#ADD1B2" rx="11" ry="11" style="stroke:#181818;stroke-width:1;"/><path d="M62.1988,63.6406 Q61.6206,63.9375 60.98,64.0781 Q60.3394,64.2344 59.6363,64.2344 Q57.1363,64.2344 55.8081,62.5938 Q54.4956,60.9375 54.4956,57.8125 Q54.4956,54.6875 55.8081,53.0313 Q57.1363,51.375 59.6363,51.375 Q60.3394,51.375 60.98,51.5313 Q61.6363,51.6875 62.1988,51.9844 L62.1988,54.7031 Q61.5738,54.125 60.98,53.8594 Q60.3863,53.5781 59.7613,53.5781 Q58.4175,53.5781 57.73,54.6563 Q57.0425,55.7188 57.0425,57.8125 Q57.0425,59.9063 57.73,60.9844 Q58.4175,62.0469 59.7613,62.0469 Q60.3863,62.0469 60.98,61.7813 Q61.5738,61.5 62.1988,60.9219 L62.1988,63.6406 Z " fill="#000000"/><text fill="#000000" font-family="sans-serif" font-size="14" lengthAdjust="spacing" textLength="71.5449" x="73.23" y="62.8467">LoginView</text><line style="stroke:#181818;stroke-width:0.5;" x1="45.23" x2="146.7749" y1="74" y2="74"/><line style="stroke:#181818;stroke-width:0.5;" x1="45.23" x2="146.7749" y1="82" y2="82"/><ellipse cx="55.23" cy="95.6484" fill="#84BE84" rx="3" ry="3" style="stroke:#038048;stroke-width:1;"/><text fill="#000000" font-family="sans-serif" font-size="14" lengthAdjust="spacing" textLength="45.0283" x="64.23" y="98.9951">login()</text><ellipse cx="55.23" cy="111.9453" fill="#84BE84" rx="3" ry="3" style="stroke:#038048;stroke-width:1;"/><text fill="#000000" font-family="sans-serif" font-size="14" lengthAdjust="spacing" textLength="65.2217" x="64.23" y="115.292">register()</text></g><!--class HomeView--><g id="elem_HomeView"><rect codeLine="11" fill="#F1F1F1" height="64.2969" id="HomeView" rx="2.5" ry="2.5" style="stroke:#181818;stroke-width:0.5;" width="123.7197" x="832.14" y="50.15"/><ellipse cx="854.7206" cy="66.15" fill="#ADD1B2" rx="11" ry="11" style="stroke:#181818;stroke-width:1;"/><path d="M857.6893,71.7906 Q857.1112,72.0875 856.4706,72.2281 Q855.8299,72.3844 855.1268,72.3844 Q852.6268,72.3844 851.2987,70.7438 Q849.9862,69.0875 849.9862,65.9625 Q849.9862,62.8375 851.2987,61.1813 Q852.6268,59.525 855.1268,59.525 Q855.8299,59.525 856.4706,59.6813 Q857.1268,59.8375 857.6893,60.1344 L857.6893,62.8531 Q857.0643,62.275 856.4706,62.0094 Q855.8768,61.7281 855.2518,61.7281 Q853.9081,61.7281 853.2206,62.8063 Q852.5331,63.8688 852.5331,65.9625 Q852.5331,68.0563 853.2206,69.1344 Q853.9081,70.1969 855.2518,70.1969 Q855.8768,70.1969 856.4706,69.9313 Q857.0643,69.65 857.6893,69.0719 L857.6893,71.7906 Z " fill="#000000"/><text fill="#000000" font-family="sans-serif" font-size="14" lengthAdjust="spacing" textLength="74.874" x="870.4051" y="70.9967">HomeView</text><line style="stroke:#181818;stroke-width:0.5;" x1="833.14" x2="954.8597" y1="82.15" y2="82.15"/><line style="stroke:#181818;stroke-width:0.5;" x1="833.14" x2="954.8597" y1="90.15" y2="90.15"/><ellipse cx="843.14" cy="103.7984" fill="#84BE84" rx="3" ry="3" style="stroke:#038048;stroke-width:1;"/><text fill="#000000" font-family="sans-serif" font-size="14" lengthAdjust="spacing" textLength="97.7197" x="852.14" y="107.1451">displayPosts()</text></g><!--class PostItem--><g id="elem_PostItem"><rect codeLine="14" fill="#F1F1F1" height="64.2969" id="PostItem" rx="2.5" ry="2.5" style="stroke:#181818;stroke-width:0.5;" width="116.4258" x="990.79" y="50.15"/><ellipse cx="1016.0345" cy="66.15" fill="#ADD1B2" rx="11" ry="11" style="stroke:#181818;stroke-width:1;"/><path d="M1019.0033,71.7906 Q1018.4252,72.0875 1017.7845,72.2281 Q1017.1439,72.3844 1016.4408,72.3844 Q1013.9408,72.3844 1012.6127,70.7438 Q1011.3002,69.0875 1011.3002,65.9625 Q1011.3002,62.8375 1012.6127,61.1813 Q1013.9408,59.525 1016.4408,59.525 Q1017.1439,59.525 1017.7845,59.6813 Q1018.4408,59.8375 1019.0033,60.1344 L1019.0033,62.8531 Q1018.3783,62.275 1017.7845,62.0094 Q1017.1908,61.7281 1016.5658,61.7281 Q1015.222,61.7281 1014.5345,62.8063 Q1013.847,63.8688 1013.847,65.9625 Q1013.847,68.0563 1014.5345,69.1344 Q1015.222,70.1969 1016.5658,70.1969 Q1017.1908,70.1969 1017.7845,69.9313 Q1018.3783,69.65 1019.0033,69.0719 L1019.0033,71.7906 Z " fill="#000000"/><text fill="#000000" font-family="sans-serif" font-size="14" lengthAdjust="spacing" textLength="61.6602" x="1032.3111" y="70.9967">PostItem</text><line style="stroke:#181818;stroke-width:0.5;" x1="991.79" x2="1106.2158" y1="82.15" y2="82.15"/><line style="stroke:#181818;stroke-width:0.5;" x1="991.79" x2="1106.2158" y1="90.15" y2="90.15"/><ellipse cx="1001.79" cy="103.7984" fill="#84BE84" rx="3" ry="3" style="stroke:#038048;stroke-width:1;"/><text fill="#000000" font-family="sans-serif" font-size="14" lengthAdjust="spacing" textLength="90.4258" x="1010.79" y="107.1451">displayPost()</text></g><!--class AddPostView--><g id="elem_AddPostView"><rect codeLine="17" fill="#F1F1F1" height="64.2969" id="AddPostView" rx="2.5" ry="2.5" style="stroke:#181818;stroke-width:0.5;" width="122.6719" x="674.66" y="50.15"/><ellipse cx="689.66" cy="66.15" fill="#ADD1B2" rx="11" ry="11" style="stroke:#181818;stroke-width:1;"/><path d="M692.6288,71.7906 Q692.0506,72.0875 691.41,72.2281 Q690.7694,72.3844 690.0663,72.3844 Q687.5663,72.3844 686.2381,70.7438 Q684.9256,69.0875 684.9256,65.9625 Q684.9256,62.8375 686.2381,61.1813 Q687.5663,59.525 690.0663,59.525 Q690.7694,59.525 691.41,59.6813 Q692.0663,59.8375 692.6288,60.1344 L692.6288,62.8531 Q692.0038,62.275 691.41,62.0094 Q690.8163,61.7281 690.1913,61.7281 Q688.8475,61.7281 688.16,62.8063 Q687.4725,63.8688 687.4725,65.9625 Q687.4725,68.0563 688.16,69.1344 Q688.8475,70.1969 690.1913,70.1969 Q690.8163,70.1969 691.41,69.9313 Q692.0038,69.65 692.6288,69.0719 L692.6288,71.7906 Z " fill="#000000"/><text fill="#000000" font-family="sans-serif" font-size="14" lengthAdjust="spacing" textLength="90.6719" x="703.66" y="70.9967">AddPostView</text><line style="stroke:#181818;stroke-width:0.5;" x1="675.66" x2="796.3319" y1="82.15" y2="82.15"/><line style="stroke:#181818;stroke-width:0.5;" x1="675.66" x2="796.3319" y1="90.15" y2="90.15"/><ellipse cx="685.66" cy="103.7984" fill="#84BE84" rx="3" ry="3" style="stroke:#038048;stroke-width:1;"/><text fill="#000000" font-family="sans-serif" font-size="14" lengthAdjust="spacing" textLength="88.7852" x="694.66" y="107.1451">submitPost()</text></g><!--class ProfileView--><g id="elem_ProfileView"><rect codeLine="20" fill="#F1F1F1" height="64.2969" id="ProfileView" rx="2.5" ry="2.5" style="stroke:#181818;stroke-width:0.5;" width="130.7197" x="182.64" y="50.15"/><ellipse cx="207.137" cy="66.15" fill="#ADD1B2" rx="11" ry="11" style="stroke:#181818;stroke-width:1;"/><path d="M210.1058,71.7906 Q209.5276,72.0875 208.887,72.2281 Q208.2464,72.3844 207.5433,72.3844 Q205.0433,72.3844 203.7151,70.7438 Q202.4026,69.0875 202.4026,65.9625 Q202.4026,62.8375 203.7151,61.1813 Q205.0433,59.525 207.5433,59.525 Q208.2464,59.525 208.887,59.6813 Q209.5433,59.8375 210.1058,60.1344 L210.1058,62.8531 Q209.4808,62.275 208.887,62.0094 Q208.2933,61.7281 207.6683,61.7281 Q206.3245,61.7281 205.637,62.8063 Q204.9495,63.8688 204.9495,65.9625 Q204.9495,68.0563 205.637,69.1344 Q206.3245,70.1969 207.6683,70.1969 Q208.2933,70.1969 208.887,69.9313 Q209.4808,69.65 210.1058,69.0719 L210.1058,71.7906 Z " fill="#000000"/><text fill="#000000" font-family="sans-serif" font-size="14" lengthAdjust="spacing" textLength="77.6152" x="223.2475" y="70.9967">ProfileView</text><line style="stroke:#181818;stroke-width:0.5;" x1="183.64" x2="312.3597" y1="82.15" y2="82.15"/><line style="stroke:#181818;stroke-width:0.5;" x1="183.64" x2="312.3597" y1="90.15" y2="90.15"/><ellipse cx="193.64" cy="103.7984" fill="#84BE84" rx="3" ry="3" style="stroke:#038048;stroke-width:1;"/><text fill="#000000" font-family="sans-serif" font-size="14" lengthAdjust="spacing" textLength="104.7197" x="202.64" y="107.1451">displayProfile()</text></g><!--class UserView--><g id="elem_UserView"><rect codeLine="23" fill="#F1F1F1" height="64.2969" id="UserView" rx="2.5" ry="2.5" style="stroke:#181818;stroke-width:0.5;" width="118.5449" x="1816.73" y="50.15"/><ellipse cx="1841.227" cy="66.15" fill="#ADD1B2" rx="11" ry="11" style="stroke:#181818;stroke-width:1;"/><path d="M1844.1958,71.7906 Q1843.6176,72.0875 1842.977,72.2281 Q1842.3364,72.3844 1841.6333,72.3844 Q1839.1333,72.3844 1837.8051,70.7438 Q1836.4926,69.0875 1836.4926,65.9625 Q1836.4926,62.8375 1837.8051,61.1813 Q1839.1333,59.525 1841.6333,59.525 Q1842.3364,59.525 1842.977,59.6813 Q1843.6333,59.8375 1844.1958,60.1344 L1844.1958,62.8531 Q1843.5708,62.275 1842.977,62.0094 Q1842.3833,61.7281 1841.7583,61.7281 Q1840.4145,61.7281 1839.727,62.8063 Q1839.0395,63.8688 1839.0395,65.9625 Q1839.0395,68.0563 1839.727,69.1344 Q1840.4145,70.1969 1841.7583,70.1969 Q1842.3833,70.1969 1842.977,69.9313 Q1843.5708,69.65 1844.1958,69.0719 L1844.1958,71.7906 Z " fill="#000000"/><text fill="#000000" font-family="sans-serif" font-size="14" lengthAdjust="spacing" textLength="65.4404" x="1857.3375" y="70.9967">UserView</text><line style="stroke:#181818;stroke-width:0.5;" x1="1817.73" x2="1934.2749" y1="82.15" y2="82.15"/><line style="stroke:#181818;stroke-width:0.5;" x1="1817.73" x2="1934.2749" y1="90.15" y2="90.15"/><ellipse cx="1827.73" cy="103.7984" fill="#84BE84" rx="3" ry="3" style="stroke:#038048;stroke-width:1;"/><text fill="#000000" font-family="sans-serif" font-size="14" lengthAdjust="spacing" textLength="92.5449" x="1836.73" y="107.1451">displayUser()</text></g><!--class UserPhotosView--><g id="elem_UserPhotosView"><rect codeLine="26" fill="#F1F1F1" height="64.2969" id="UserPhotosView" rx="2.5" ry="2.5" style="stroke:#181818;stroke-width:0.5;" width="144.6699" x="1142.67" y="50.15"/><ellipse cx="1157.67" cy="66.15" fill="#ADD1B2" rx="11" ry="11" style="stroke:#181818;stroke-width:1;"/><path d="M1160.6388,71.7906 Q1160.0606,72.0875 1159.42,72.2281 Q1158.7794,72.3844 1158.0763,72.3844 Q1155.5763,72.3844 1154.2481,70.7438 Q1152.9356,69.0875 1152.9356,65.9625 Q1152.9356,62.8375 1154.2481,61.1813 Q1155.5763,59.525 1158.0763,59.525 Q1158.7794,59.525 1159.42,59.6813 Q1160.0763,59.8375 1160.6388,60.1344 L1160.6388,62.8531 Q1160.0138,62.275 1159.42,62.0094 Q1158.8263,61.7281 1158.2013,61.7281 Q1156.8575,61.7281 1156.17,62.8063 Q1155.4825,63.8688 1155.4825,65.9625 Q1155.4825,68.0563 1156.17,69.1344 Q1156.8575,70.1969 1158.2013,70.1969 Q1158.8263,70.1969 1159.42,69.9313 Q1160.0138,69.65 1160.6388,69.0719 L1160.6388,71.7906 Z " fill="#000000"/><text fill="#000000" font-family="sans-serif" font-size="14" lengthAdjust="spacing" textLength="112.6699" x="1171.67" y="70.9967">UserPhotosView</text><line style="stroke:#181818;stroke-width:0.5;" x1="1143.67" x2="1286.3399" y1="82.15" y2="82.15"/><line style="stroke:#181818;stroke-width:0.5;" x1="1143.67" x2="1286.3399" y1="90.15" y2="90.15"/><ellipse cx="1153.67" cy="103.7984" fill="#84BE84" rx="3" ry="3" style="stroke:#038048;stroke-width:1;"/><text fill="#000000" font-family="sans-serif" font-size="14" lengthAdjust="spacing" textLength="107.8643" x="1162.67" y="107.1451">displayPhotos()</text></g><!--class UserPostsView--><g id="elem_UserPostsView"><rect codeLine="29" fill="#F1F1F1" height="64.2969" id="UserPostsView" rx="2.5" ry="2.5" style="stroke:#181818;stroke-width:0.5;" width="134.5254" x="504.74" y="50.15"/><ellipse cx="519.74" cy="66.15" fill="#ADD1B2" rx="11" ry="11" style="stroke:#181818;stroke-width:1;"/><path d="M522.7088,71.7906 Q522.1306,72.0875 521.49,72.2281 Q520.8494,72.3844 520.1463,72.3844 Q517.6463,72.3844 516.3181,70.7438 Q515.0056,69.0875 515.0056,65.9625 Q515.0056,62.8375 516.3181,61.1813 Q517.6463,59.525 520.1463,59.525 Q520.8494,59.525 521.49,59.6813 Q522.1463,59.8375 522.7088,60.1344 L522.7088,62.8531 Q522.0838,62.275 521.49,62.0094 Q520.8963,61.7281 520.2713,61.7281 Q518.9275,61.7281 518.24,62.8063 Q517.5525,63.8688 517.5525,65.9625 Q517.5525,68.0563 518.24,69.1344 Q518.9275,70.1969 520.2713,70.1969 Q520.8963,70.1969 521.49,69.9313 Q522.0838,69.65 522.7088,69.0719 L522.7088,71.7906 Z " fill="#000000"/><text fill="#000000" font-family="sans-serif" font-size="14" lengthAdjust="spacing" textLength="102.5254" x="533.74" y="70.9967">UserPostsView</text><line style="stroke:#181818;stroke-width:0.5;" x1="505.74" x2="638.2654" y1="82.15" y2="82.15"/><line style="stroke:#181818;stroke-width:0.5;" x1="505.74" x2="638.2654" y1="90.15" y2="90.15"/><ellipse cx="515.74" cy="103.7984" fill="#84BE84" rx="3" ry="3" style="stroke:#038048;stroke-width:1;"/><text fill="#000000" font-family="sans-serif" font-size="14" lengthAdjust="spacing" textLength="97.7197" x="524.74" y="107.1451">displayPosts()</text></g><!--class FullScreenImageView--><g id="elem_FullScreenImageView"><rect codeLine="32" fill="#F1F1F1" height="64.2969" id="FullScreenImageView" rx="2.5" ry="2.5" style="stroke:#181818;stroke-width:0.5;" width="182.5205" x="1322.74" y="50.15"/><ellipse cx="1337.74" cy="66.15" fill="#ADD1B2" rx="11" ry="11" style="stroke:#181818;stroke-width:1;"/><path d="M1340.7088,71.7906 Q1340.1306,72.0875 1339.49,72.2281 Q1338.8494,72.3844 1338.1463,72.3844 Q1335.6463,72.3844 1334.3181,70.7438 Q1333.0056,69.0875 1333.0056,65.9625 Q1333.0056,62.8375 1334.3181,61.1813 Q1335.6463,59.525 1338.1463,59.525 Q1338.8494,59.525 1339.49,59.6813 Q1340.1463,59.8375 1340.7088,60.1344 L1340.7088,62.8531 Q1340.0838,62.275 1339.49,62.0094 Q1338.8963,61.7281 1338.2713,61.7281 Q1336.9275,61.7281 1336.24,62.8063 Q1335.5525,63.8688 1335.5525,65.9625 Q1335.5525,68.0563 1336.24,69.1344 Q1336.9275,70.1969 1338.2713,70.1969 Q1338.8963,70.1969 1339.49,69.9313 Q1340.0838,69.65 1340.7088,69.0719 L1340.7088,71.7906 Z " fill="#000000"/><text fill="#000000" font-family="sans-serif" font-size="14" lengthAdjust="spacing" textLength="150.5205" x="1351.74" y="70.9967">FullScreenImageView</text><line style="stroke:#181818;stroke-width:0.5;" x1="1323.74" x2="1504.2605" y1="82.15" y2="82.15"/><line style="stroke:#181818;stroke-width:0.5;" x1="1323.74" x2="1504.2605" y1="90.15" y2="90.15"/><ellipse cx="1333.74" cy="103.7984" fill="#84BE84" rx="3" ry="3" style="stroke:#038048;stroke-width:1;"/><text fill="#000000" font-family="sans-serif" font-size="14" lengthAdjust="spacing" textLength="104.4805" x="1342.74" y="107.1451">displayImage()</text></g><!--class FullScreenImageDetailedView--><g id="elem_FullScreenImageDetailedView"><rect codeLine="35" fill="#F1F1F1" height="64.2969" id="FullScreenImageDetailedView" rx="2.5" ry="2.5" style="stroke:#181818;stroke-width:0.5;" width="241.2617" x="1540.37" y="50.15"/><ellipse cx="1555.37" cy="66.15" fill="#ADD1B2" rx="11" ry="11" style="stroke:#181818;stroke-width:1;"/><path d="M1558.3388,71.7906 Q1557.7606,72.0875 1557.12,72.2281 Q1556.4794,72.3844 1555.7763,72.3844 Q1553.2763,72.3844 1551.9481,70.7438 Q1550.6356,69.0875 1550.6356,65.9625 Q1550.6356,62.8375 1551.9481,61.1813 Q1553.2763,59.525 1555.7763,59.525 Q1556.4794,59.525 1557.12,59.6813 Q1557.7763,59.8375 1558.3388,60.1344 L1558.3388,62.8531 Q1557.7138,62.275 1557.12,62.0094 Q1556.5263,61.7281 1555.9013,61.7281 Q1554.5575,61.7281 1553.87,62.8063 Q1553.1825,63.8688 1553.1825,65.9625 Q1553.1825,68.0563 1553.87,69.1344 Q1554.5575,70.1969 1555.9013,70.1969 Q1556.5263,70.1969 1557.12,69.9313 Q1557.7138,69.65 1558.3388,69.0719 L1558.3388,71.7906 Z " fill="#000000"/><text fill="#000000" font-family="sans-serif" font-size="14" lengthAdjust="spacing" textLength="209.2617" x="1569.37" y="70.9967">FullScreenImageDetailedView</text><line style="stroke:#181818;stroke-width:0.5;" x1="1541.37" x2="1780.6317" y1="82.15" y2="82.15"/><line style="stroke:#181818;stroke-width:0.5;" x1="1541.37" x2="1780.6317" y1="90.15" y2="90.15"/><ellipse cx="1551.37" cy="103.7984" fill="#84BE84" rx="3" ry="3" style="stroke:#038048;stroke-width:1;"/><text fill="#000000" font-family="sans-serif" font-size="14" lengthAdjust="spacing" textLength="153.0156" x="1560.37" y="107.1451">displayImageDetails()</text></g><!--class ModelData--><g id="elem_ModelData"><rect codeLine="41" fill="#F1F1F1" height="80.5938" id="ModelData" rx="2.5" ry="2.5" style="stroke:#181818;stroke-width:0.5;" width="107.4619" x="391.27" y="197.59"/><ellipse cx="406.27" cy="213.59" fill="#ADD1B2" rx="11" ry="11" style="stroke:#181818;stroke-width:1;"/><path d="M409.2388,219.2306 Q408.6606,219.5275 408.02,219.6681 Q407.3794,219.8244 406.6763,219.8244 Q404.1763,219.8244 402.8481,218.1838 Q401.5356,216.5275 401.5356,213.4025 Q401.5356,210.2775 402.8481,208.6213 Q404.1763,206.965 406.6763,206.965 Q407.3794,206.965 408.02,207.1213 Q408.6763,207.2775 409.2388,207.5744 L409.2388,210.2931 Q408.6138,209.715 408.02,209.4494 Q407.4263,209.1681 406.8013,209.1681 Q405.4575,209.1681 404.77,210.2463 Q404.0825,211.3088 404.0825,213.4025 Q404.0825,215.4963 404.77,216.5744 Q405.4575,217.6369 406.8013,217.6369 Q407.4263,217.6369 408.02,217.3713 Q408.6138,217.09 409.2388,216.5119 L409.2388,219.2306 Z " fill="#000000"/><text fill="#000000" font-family="sans-serif" font-size="14" lengthAdjust="spacing" textLength="75.4619" x="420.27" y="218.4367">ModelData</text><line style="stroke:#181818;stroke-width:0.5;" x1="392.27" x2="497.7319" y1="229.59" y2="229.59"/><rect fill="none" height="6" style="stroke:#C82930;stroke-width:1;" width="6" x="399.27" y="240.2384"/><text fill="#000000" font-family="sans-serif" font-size="14" lengthAdjust="spacing" textLength="63.9639" x="411.27" y="246.5851">userData</text><rect fill="none" height="6" style="stroke:#C82930;stroke-width:1;" width="6" x="399.27" y="256.5353"/><text fill="#000000" font-family="sans-serif" font-size="14" lengthAdjust="spacing" textLength="75.8242" x="411.27" y="262.882">isLoggedIn</text><line style="stroke:#181818;stroke-width:0.5;" x1="392.27" x2="497.7319" y1="270.1838" y2="270.1838"/></g><!--class LoginViewModel--><g id="elem_LoginViewModel"><rect codeLine="45" fill="#F1F1F1" height="80.5938" id="LoginViewModel" rx="2.5" ry="2.5" style="stroke:#181818;stroke-width:0.5;" width="145.5791" x="23.21" y="197.59"/><ellipse cx="38.21" cy="213.59" fill="#ADD1B2" rx="11" ry="11" style="stroke:#181818;stroke-width:1;"/><path d="M41.1788,219.2306 Q40.6006,219.5275 39.96,219.6681 Q39.3194,219.8244 38.6163,219.8244 Q36.1163,219.8244 34.7881,218.1838 Q33.4756,216.5275 33.4756,213.4025 Q33.4756,210.2775 34.7881,208.6213 Q36.1163,206.965 38.6163,206.965 Q39.3194,206.965 39.96,207.1213 Q40.6163,207.2775 41.1788,207.5744 L41.1788,210.2931 Q40.5538,209.715 39.96,209.4494 Q39.3663,209.1681 38.7413,209.1681 Q37.3975,209.1681 36.71,210.2463 Q36.0225,211.3088 36.0225,213.4025 Q36.0225,215.4963 36.71,216.5744 Q37.3975,217.6369 38.7413,217.6369 Q39.3663,217.6369 39.96,217.3713 Q40.5538,217.09 41.1788,216.5119 L41.1788,219.2306 Z " fill="#000000"/><text fill="#000000" font-family="sans-serif" font-size="14" lengthAdjust="spacing" textLength="113.5791" x="52.21" y="218.4367">LoginViewModel</text><line style="stroke:#181818;stroke-width:0.5;" x1="24.21" x2="167.7891" y1="229.59" y2="229.59"/><line style="stroke:#181818;stroke-width:0.5;" x1="24.21" x2="167.7891" y1="237.59" y2="237.59"/><ellipse cx="34.21" cy="251.2384" fill="#84BE84" rx="3" ry="3" style="stroke:#038048;stroke-width:1;"/><text fill="#000000" font-family="sans-serif" font-size="14" lengthAdjust="spacing" textLength="45.0283" x="43.21" y="254.5851">login()</text><ellipse cx="34.21" cy="267.5353" fill="#84BE84" rx="3" ry="3" style="stroke:#038048;stroke-width:1;"/><text fill="#000000" font-family="sans-serif" font-size="14" lengthAdjust="spacing" textLength="65.2217" x="43.21" y="270.882">register()</text></g><!--class PostViewModel--><g id="elem_PostViewModel"><rect codeLine="49" fill="#F1F1F1" height="64.2969" id="PostViewModel" rx="2.5" ry="2.5" style="stroke:#181818;stroke-width:0.5;" width="137.3555" x="945.32" y="205.74"/><ellipse cx="960.32" cy="221.74" fill="#ADD1B2" rx="11" ry="11" style="stroke:#181818;stroke-width:1;"/><path d="M963.2888,227.3806 Q962.7106,227.6775 962.07,227.8181 Q961.4294,227.9744 960.7263,227.9744 Q958.2263,227.9744 956.8981,226.3338 Q955.5856,224.6775 955.5856,221.5525 Q955.5856,218.4275 956.8981,216.7713 Q958.2263,215.115 960.7263,215.115 Q961.4294,215.115 962.07,215.2713 Q962.7263,215.4275 963.2888,215.7244 L963.2888,218.4431 Q962.6638,217.865 962.07,217.5994 Q961.4763,217.3181 960.8513,217.3181 Q959.5075,217.3181 958.82,218.3963 Q958.1325,219.4588 958.1325,221.5525 Q958.1325,223.6463 958.82,224.7244 Q959.5075,225.7869 960.8513,225.7869 Q961.4763,225.7869 962.07,225.5213 Q962.6638,225.24 963.2888,224.6619 L963.2888,227.3806 Z " fill="#000000"/><text fill="#000000" font-family="sans-serif" font-size="14" lengthAdjust="spacing" textLength="105.3555" x="974.32" y="226.5867">PostViewModel</text><line style="stroke:#181818;stroke-width:0.5;" x1="946.32" x2="1081.6755" y1="237.74" y2="237.74"/><line style="stroke:#181818;stroke-width:0.5;" x1="946.32" x2="1081.6755" y1="245.74" y2="245.74"/><ellipse cx="956.32" cy="259.3884" fill="#84BE84" rx="3" ry="3" style="stroke:#038048;stroke-width:1;"/><text fill="#000000" font-family="sans-serif" font-size="14" lengthAdjust="spacing" textLength="83.6104" x="965.32" y="262.7351">fetchPosts()</text></g><!--class AddPostViewModel--><g id="elem_AddPostViewModel"><rect codeLine="52" fill="#F1F1F1" height="64.2969" id="AddPostViewModel" rx="2.5" ry="2.5" style="stroke:#181818;stroke-width:0.5;" width="164.7061" x="745.65" y="205.74"/><ellipse cx="760.65" cy="221.74" fill="#ADD1B2" rx="11" ry="11" style="stroke:#181818;stroke-width:1;"/><path d="M763.6188,227.3806 Q763.0406,227.6775 762.4,227.8181 Q761.7594,227.9744 761.0563,227.9744 Q758.5563,227.9744 757.2281,226.3338 Q755.9156,224.6775 755.9156,221.5525 Q755.9156,218.4275 757.2281,216.7713 Q758.5563,215.115 761.0563,215.115 Q761.7594,215.115 762.4,215.2713 Q763.0563,215.4275 763.6188,215.7244 L763.6188,218.4431 Q762.9938,217.865 762.4,217.5994 Q761.8063,217.3181 761.1813,217.3181 Q759.8375,217.3181 759.15,218.3963 Q758.4625,219.4588 758.4625,221.5525 Q758.4625,223.6463 759.15,224.7244 Q759.8375,225.7869 761.1813,225.7869 Q761.8063,225.7869 762.4,225.5213 Q762.9938,225.24 763.6188,224.6619 L763.6188,227.3806 Z " fill="#000000"/><text fill="#000000" font-family="sans-serif" font-size="14" lengthAdjust="spacing" textLength="132.7061" x="774.65" y="226.5867">AddPostViewModel</text><line style="stroke:#181818;stroke-width:0.5;" x1="746.65" x2="909.3561" y1="237.74" y2="237.74"/><line style="stroke:#181818;stroke-width:0.5;" x1="746.65" x2="909.3561" y1="245.74" y2="245.74"/><ellipse cx="756.65" cy="259.3884" fill="#84BE84" rx="3" ry="3" style="stroke:#038048;stroke-width:1;"/><text fill="#000000" font-family="sans-serif" font-size="14" lengthAdjust="spacing" textLength="67.0674" x="765.65" y="262.7351">addPost()</text></g><!--class ProfileViewModel--><g id="elem_ProfileViewModel"><rect codeLine="55" fill="#F1F1F1" height="64.2969" id="ProfileViewModel" rx="2.5" ry="2.5" style="stroke:#181818;stroke-width:0.5;" width="151.6494" x="204.18" y="205.74"/><ellipse cx="219.18" cy="221.74" fill="#ADD1B2" rx="11" ry="11" style="stroke:#181818;stroke-width:1;"/><path d="M222.1488,227.3806 Q221.5706,227.6775 220.93,227.8181 Q220.2894,227.9744 219.5863,227.9744 Q217.0863,227.9744 215.7581,226.3338 Q214.4456,224.6775 214.4456,221.5525 Q214.4456,218.4275 215.7581,216.7713 Q217.0863,215.115 219.5863,215.115 Q220.2894,215.115 220.93,215.2713 Q221.5863,215.4275 222.1488,215.7244 L222.1488,218.4431 Q221.5238,217.865 220.93,217.5994 Q220.3363,217.3181 219.7113,217.3181 Q218.3675,217.3181 217.68,218.3963 Q216.9925,219.4588 216.9925,221.5525 Q216.9925,223.6463 217.68,224.7244 Q218.3675,225.7869 219.7113,225.7869 Q220.3363,225.7869 220.93,225.5213 Q221.5238,225.24 222.1488,224.6619 L222.1488,227.3806 Z " fill="#000000"/><text fill="#000000" font-family="sans-serif" font-size="14" lengthAdjust="spacing" textLength="119.6494" x="233.18" y="226.5867">ProfileViewModel</text><line style="stroke:#181818;stroke-width:0.5;" x1="205.18" x2="354.8294" y1="237.74" y2="237.74"/><line style="stroke:#181818;stroke-width:0.5;" x1="205.18" x2="354.8294" y1="245.74" y2="245.74"/><ellipse cx="215.18" cy="259.3884" fill="#84BE84" rx="3" ry="3" style="stroke:#038048;stroke-width:1;"/><text fill="#000000" font-family="sans-serif" font-size="14" lengthAdjust="spacing" textLength="104.3369" x="224.18" y="262.7351">updateProfile()</text></g><!--class UserPostsViewModel--><g id="elem_UserPostsViewModel"><rect codeLine="58" fill="#F1F1F1" height="64.2969" id="UserPostsViewModel" rx="2.5" ry="2.5" style="stroke:#181818;stroke-width:0.5;" width="176.5596" x="533.72" y="205.74"/><ellipse cx="548.72" cy="221.74" fill="#ADD1B2" rx="11" ry="11" style="stroke:#181818;stroke-width:1;"/><path d="M551.6888,227.3806 Q551.1106,227.6775 550.47,227.8181 Q549.8294,227.9744 549.1263,227.9744 Q546.6263,227.9744 545.2981,226.3338 Q543.9856,224.6775 543.9856,221.5525 Q543.9856,218.4275 545.2981,216.7713 Q546.6263,215.115 549.1263,215.115 Q549.8294,215.115 550.47,215.2713 Q551.1263,215.4275 551.6888,215.7244 L551.6888,218.4431 Q551.0638,217.865 550.47,217.5994 Q549.8763,217.3181 549.2513,217.3181 Q547.9075,217.3181 547.22,218.3963 Q546.5325,219.4588 546.5325,221.5525 Q546.5325,223.6463 547.22,224.7244 Q547.9075,225.7869 549.2513,225.7869 Q549.8763,225.7869 550.47,225.5213 Q551.0638,225.24 551.6888,224.6619 L551.6888,227.3806 Z " fill="#000000"/><text fill="#000000" font-family="sans-serif" font-size="14" lengthAdjust="spacing" textLength="144.5596" x="562.72" y="226.5867">UserPostsViewModel</text><line style="stroke:#181818;stroke-width:0.5;" x1="534.72" x2="709.2796" y1="237.74" y2="237.74"/><line style="stroke:#181818;stroke-width:0.5;" x1="534.72" x2="709.2796" y1="245.74" y2="245.74"/><ellipse cx="544.72" cy="259.3884" fill="#84BE84" rx="3" ry="3" style="stroke:#038048;stroke-width:1;"/><text fill="#000000" font-family="sans-serif" font-size="14" lengthAdjust="spacing" textLength="115.5205" x="553.72" y="262.7351">fetchUserPosts()</text></g><!--class UserViewModel--><g id="elem_UserViewModel"><rect codeLine="61" fill="#F1F1F1" height="64.2969" id="UserViewModel" rx="2.5" ry="2.5" style="stroke:#181818;stroke-width:0.5;" width="139.4746" x="1117.26" y="205.74"/><ellipse cx="1132.26" cy="221.74" fill="#ADD1B2" rx="11" ry="11" style="stroke:#181818;stroke-width:1;"/><path d="M1135.2288,227.3806 Q1134.6506,227.6775 1134.01,227.8181 Q1133.3694,227.9744 1132.6663,227.9744 Q1130.1663,227.9744 1128.8381,226.3338 Q1127.5256,224.6775 1127.5256,221.5525 Q1127.5256,218.4275 1128.8381,216.7713 Q1130.1663,215.115 1132.6663,215.115 Q1133.3694,215.115 1134.01,215.2713 Q1134.6663,215.4275 1135.2288,215.7244 L1135.2288,218.4431 Q1134.6038,217.865 1134.01,217.5994 Q1133.4163,217.3181 1132.7913,217.3181 Q1131.4475,217.3181 1130.76,218.3963 Q1130.0725,219.4588 1130.0725,221.5525 Q1130.0725,223.6463 1130.76,224.7244 Q1131.4475,225.7869 1132.7913,225.7869 Q1133.4163,225.7869 1134.01,225.5213 Q1134.6038,225.24 1135.2288,224.6619 L1135.2288,227.3806 Z " fill="#000000"/><text fill="#000000" font-family="sans-serif" font-size="14" lengthAdjust="spacing" textLength="107.4746" x="1146.26" y="226.5867">UserViewModel</text><line style="stroke:#181818;stroke-width:0.5;" x1="1118.26" x2="1255.7346" y1="237.74" y2="237.74"/><line style="stroke:#181818;stroke-width:0.5;" x1="1118.26" x2="1255.7346" y1="245.74" y2="245.74"/><ellipse cx="1128.26" cy="259.3884" fill="#84BE84" rx="3" ry="3" style="stroke:#038048;stroke-width:1;"/><text fill="#000000" font-family="sans-serif" font-size="14" lengthAdjust="spacing" textLength="78.4355" x="1137.26" y="262.7351">fetchUser()</text></g><!--class User--><g id="elem_User"><rect codeLine="67" fill="#F1F1F1" height="96.8906" id="User" rx="2.5" ry="2.5" style="stroke:#181818;stroke-width:0.5;" width="65.7031" x="584.15" y="369.48"/><ellipse cx="599.9568" cy="385.48" fill="#ADD1B2" rx="11" ry="11" style="stroke:#181818;stroke-width:1;"/><path d="M602.9256,391.1206 Q602.3475,391.4175 601.7068,391.5581 Q601.0662,391.7144 600.3631,391.7144 Q597.8631,391.7144 596.535,390.0738 Q595.2225,388.4175 595.2225,385.2925 Q595.2225,382.1675 596.535,380.5113 Q597.8631,378.855 600.3631,378.855 Q601.0662,378.855 601.7068,379.0113 Q602.3631,379.1675 602.9256,379.4644 L602.9256,382.1831 Q602.3006,381.605 601.7068,381.3394 Q601.1131,381.0581 600.4881,381.0581 Q599.1443,381.0581 598.4568,382.1363 Q597.7693,383.1988 597.7693,385.2925 Q597.7693,387.3863 598.4568,388.4644 Q599.1443,389.5269 600.4881,389.5269 Q601.1131,389.5269 601.7068,389.2613 Q602.3006,388.98 602.9256,388.4019 L602.9256,391.1206 Z " fill="#000000"/><text fill="#000000" font-family="sans-serif" font-size="14" lengthAdjust="spacing" textLength="31.9102" x="614.1361" y="390.3267">User</text><line style="stroke:#181818;stroke-width:0.5;" x1="585.15" x2="648.8531" y1="401.48" y2="401.48"/><rect fill="none" height="6" style="stroke:#C82930;stroke-width:1;" width="6" x="592.15" y="412.1284"/><text fill="#000000" font-family="sans-serif" font-size="14" lengthAdjust="spacing" textLength="12.7764" x="604.15" y="418.4751">id</text><rect fill="none" height="6" style="stroke:#C82930;stroke-width:1;" width="6" x="592.15" y="428.4253"/><text fill="#000000" font-family="sans-serif" font-size="14" lengthAdjust="spacing" textLength="39.7031" x="604.15" y="434.772">name</text><rect fill="none" height="6" style="stroke:#C82930;stroke-width:1;" width="6" x="592.15" y="444.7222"/><text fill="#000000" font-family="sans-serif" font-size="14" lengthAdjust="spacing" textLength="38.6094" x="604.15" y="451.0689">email</text><line style="stroke:#181818;stroke-width:0.5;" x1="585.15" x2="648.8531" y1="458.3706" y2="458.3706"/></g><!--class Post--><g id="elem_Post"><rect codeLine="72" fill="#F1F1F1" height="129.4844" id="Post" rx="2.5" ry="2.5" style="stroke:#181818;stroke-width:0.5;" width="79.6006" x="685.2" y="353.19"/><ellipse cx="708.2143" cy="369.19" fill="#ADD1B2" rx="11" ry="11" style="stroke:#181818;stroke-width:1;"/><path d="M711.1831,374.8306 Q710.6049,375.1275 709.9643,375.2681 Q709.3237,375.4244 708.6206,375.4244 Q706.1206,375.4244 704.7924,373.7838 Q703.4799,372.1275 703.4799,369.0025 Q703.4799,365.8775 704.7924,364.2213 Q706.1206,362.565 708.6206,362.565 Q709.3237,362.565 709.9643,362.7213 Q710.6206,362.8775 711.1831,363.1744 L711.1831,365.8931 Q710.5581,365.315 709.9643,365.0494 Q709.3706,364.7681 708.7456,364.7681 Q707.4018,364.7681 706.7143,365.8463 Q706.0268,366.9088 706.0268,369.0025 Q706.0268,371.0963 706.7143,372.1744 Q707.4018,373.2369 708.7456,373.2369 Q709.3706,373.2369 709.9643,372.9713 Q710.5581,372.69 711.1831,372.1119 L711.1831,374.8306 Z " fill="#000000"/><text fill="#000000" font-family="sans-serif" font-size="14" lengthAdjust="spacing" textLength="29.791" x="723.9953" y="374.0367">Post</text><line style="stroke:#181818;stroke-width:0.5;" x1="686.2" x2="763.8006" y1="385.19" y2="385.19"/><rect fill="none" height="6" style="stroke:#C82930;stroke-width:1;" width="6" x="693.2" y="395.8384"/><text fill="#000000" font-family="sans-serif" font-size="14" lengthAdjust="spacing" textLength="12.7764" x="705.2" y="402.1851">id</text><rect fill="none" height="6" style="stroke:#C82930;stroke-width:1;" width="6" x="693.2" y="412.1353"/><text fill="#000000" font-family="sans-serif" font-size="14" lengthAdjust="spacing" textLength="27.3711" x="705.2" y="418.482">title</text><rect fill="none" height="6" style="stroke:#C82930;stroke-width:1;" width="6" x="693.2" y="428.4322"/><text fill="#000000" font-family="sans-serif" font-size="14" lengthAdjust="spacing" textLength="53.6006" x="705.2" y="434.7789">content</text><rect fill="none" height="6" style="stroke:#C82930;stroke-width:1;" width="6" x="693.2" y="444.7291"/><text fill="#000000" font-family="sans-serif" font-size="14" lengthAdjust="spacing" textLength="50.9004" x="705.2" y="451.0757">images</text><rect fill="none" height="6" style="stroke:#C82930;stroke-width:1;" width="6" x="693.2" y="461.0259"/><text fill="#000000" font-family="sans-serif" font-size="14" lengthAdjust="spacing" textLength="50.3125" x="705.2" y="467.3726">user_id</text><line style="stroke:#181818;stroke-width:0.5;" x1="686.2" x2="763.8006" y1="474.6744" y2="474.6744"/></g><!--class Result--><g id="elem_Result"><rect codeLine="79" fill="#F1F1F1" height="96.8906" id="Result" rx="2.5" ry="2.5" style="stroke:#181818;stroke-width:0.5;" width="75.8867" x="800.06" y="369.48"/><ellipse cx="815.06" cy="385.48" fill="#ADD1B2" rx="11" ry="11" style="stroke:#181818;stroke-width:1;"/><path d="M818.0288,391.1206 Q817.4506,391.4175 816.81,391.5581 Q816.1694,391.7144 815.4663,391.7144 Q812.9663,391.7144 811.6381,390.0738 Q810.3256,388.4175 810.3256,385.2925 Q810.3256,382.1675 811.6381,380.5113 Q812.9663,378.855 815.4663,378.855 Q816.1694,378.855 816.81,379.0113 Q817.4663,379.1675 818.0288,379.4644 L818.0288,382.1831 Q817.4038,381.605 816.81,381.3394 Q816.2163,381.0581 815.5913,381.0581 Q814.2475,381.0581 813.56,382.1363 Q812.8725,383.1988 812.8725,385.2925 Q812.8725,387.3863 813.56,388.4644 Q814.2475,389.5269 815.5913,389.5269 Q816.2163,389.5269 816.81,389.2613 Q817.4038,388.98 818.0288,388.4019 L818.0288,391.1206 Z " fill="#000000"/><text fill="#000000" font-family="sans-serif" font-size="14" lengthAdjust="spacing" textLength="43.8867" x="829.06" y="390.3267">Result</text><line style="stroke:#181818;stroke-width:0.5;" x1="801.06" x2="874.9467" y1="401.48" y2="401.48"/><rect fill="none" height="6" style="stroke:#C82930;stroke-width:1;" width="6" x="808.06" y="412.1284"/><text fill="#000000" font-family="sans-serif" font-size="14" lengthAdjust="spacing" textLength="33.7627" x="820.06" y="418.4751">code</text><rect fill="none" height="6" style="stroke:#C82930;stroke-width:1;" width="6" x="808.06" y="428.4253"/><text fill="#000000" font-family="sans-serif" font-size="14" lengthAdjust="spacing" textLength="29.8184" x="820.06" y="434.772">msg</text><rect fill="none" height="6" style="stroke:#C82930;stroke-width:1;" width="6" x="808.06" y="444.7222"/><text fill="#000000" font-family="sans-serif" font-size="14" lengthAdjust="spacing" textLength="31.5342" x="820.06" y="451.0689">data</text><line style="stroke:#181818;stroke-width:0.5;" x1="801.06" x2="874.9467" y1="458.3706" y2="458.3706"/></g><!--class ImageMeta--><g id="elem_ImageMeta"><rect codeLine="84" fill="#F1F1F1" height="113.1875" id="ImageMeta" rx="2.5" ry="2.5" style="stroke:#181818;stroke-width:0.5;" width="110.6064" x="910.7" y="361.33"/><ellipse cx="925.7" cy="377.33" fill="#ADD1B2" rx="11" ry="11" style="stroke:#181818;stroke-width:1;"/><path d="M928.6688,382.9706 Q928.0906,383.2675 927.45,383.4081 Q926.8094,383.5644 926.1063,383.5644 Q923.6063,383.5644 922.2781,381.9238 Q920.9656,380.2675 920.9656,377.1425 Q920.9656,374.0175 922.2781,372.3613 Q923.6063,370.705 926.1063,370.705 Q926.8094,370.705 927.45,370.8613 Q928.1063,371.0175 928.6688,371.3144 L928.6688,374.0331 Q928.0438,373.455 927.45,373.1894 Q926.8563,372.9081 926.2313,372.9081 Q924.8875,372.9081 924.2,373.9863 Q923.5125,375.0488 923.5125,377.1425 Q923.5125,379.2363 924.2,380.3144 Q924.8875,381.3769 926.2313,381.3769 Q926.8563,381.3769 927.45,381.1113 Q928.0438,380.83 928.6688,380.2519 L928.6688,382.9706 Z " fill="#000000"/><text fill="#000000" font-family="sans-serif" font-size="14" lengthAdjust="spacing" textLength="78.6064" x="939.7" y="382.1767">ImageMeta</text><line style="stroke:#181818;stroke-width:0.5;" x1="911.7" x2="1020.3064" y1="393.33" y2="393.33"/><rect fill="none" height="6" style="stroke:#C82930;stroke-width:1;" width="6" x="918.7" y="403.9784"/><text fill="#000000" font-family="sans-serif" font-size="14" lengthAdjust="spacing" textLength="18.5186" x="930.7" y="410.3251">url</text><rect fill="none" height="6" style="stroke:#C82930;stroke-width:1;" width="6" x="918.7" y="420.2753"/><text fill="#000000" font-family="sans-serif" font-size="14" lengthAdjust="spacing" textLength="38.5889" x="930.7" y="426.622">width</text><rect fill="none" height="6" style="stroke:#C82930;stroke-width:1;" width="6" x="918.7" y="436.5722"/><text fill="#000000" font-family="sans-serif" font-size="14" lengthAdjust="spacing" textLength="44.625" x="930.7" y="442.9189">height</text><rect fill="none" height="6" style="stroke:#C82930;stroke-width:1;" width="6" x="918.7" y="452.8691"/><text fill="#000000" font-family="sans-serif" font-size="14" lengthAdjust="spacing" textLength="38.5479" x="930.7" y="459.2157">index</text><line style="stroke:#181818;stroke-width:0.5;" x1="911.7" x2="1020.3064" y1="466.5175" y2="466.5175"/></g><!--link ContentView to ModelData--><g id="link_ContentView_ModelData"><path codeLine="92" d="M416.37,114.75 C421.97,138.62 428.3322,165.758 434.3422,191.428 " fill="none" id="ContentView-to-ModelData" style="stroke:#181818;stroke-width:1;"/><polygon fill="#181818" points="435.71,197.27,437.553,187.5951,434.5702,192.4016,429.7637,189.4188,435.71,197.27" style="stroke:#181818;stroke-width:1;"/></g><!--link LoginView to LoginViewModel--><g id="link_LoginView_LoginViewModel"><path codeLine="93" d="M96,122.85 C96,145.69 96,168.34 96,191.2 " fill="none" id="LoginView-to-LoginViewModel" style="stroke:#181818;stroke-width:1;"/><polygon fill="#181818" points="96,197.2,100,188.2,96,192.2,92,188.2,96,197.2" style="stroke:#181818;stroke-width:1;"/></g><!--link HomeView to PostViewModel--><g id="link_HomeView_PostViewModel"><path codeLine="94" d="M918.57,114.75 C939.28,141.25 965.0665,174.2516 985.7665,200.7516 " fill="none" id="HomeView-to-PostViewModel" style="stroke:#181818;stroke-width:1;"/><polygon fill="#181818" points="989.46,205.48,987.072,195.925,986.3821,201.5397,980.7674,200.8497,989.46,205.48" style="stroke:#181818;stroke-width:1;"/></g><!--link PostItem to PostViewModel--><g id="link_PostItem_PostViewModel"><path codeLine="95" d="M1041.83,114.75 C1035.79,141.25 1028.5213,173.1296 1022.4913,199.6296 " fill="none" id="PostItem-to-PostViewModel" style="stroke:#181818;stroke-width:1;"/><polygon fill="#181818" points="1021.16,205.48,1027.0572,197.5918,1022.2694,200.6046,1019.2566,195.8168,1021.16,205.48" style="stroke:#181818;stroke-width:1;"/></g><!--link AddPostView to AddPostViewModel--><g id="link_AddPostView_AddPostViewModel"><path codeLine="96" d="M754.84,114.75 C770.72,141.25 790.2373,173.8325 806.1073,200.3325 " fill="none" id="AddPostView-to-AddPostViewModel" style="stroke:#181818;stroke-width:1;"/><polygon fill="#181818" points="809.19,205.48,807.9977,195.7036,806.6211,201.1904,801.1343,199.8138,809.19,205.48" style="stroke:#181818;stroke-width:1;"/></g><!--link ProfileView to ProfileViewModel--><g id="link_ProfileView_ProfileViewModel"><path codeLine="97" d="M254.55,114.75 C260.08,141.25 266.7165,173.1061 272.2365,199.6061 " fill="none" id="ProfileView-to-ProfileViewModel" style="stroke:#181818;stroke-width:1;"/><polygon fill="#181818" points="273.46,205.48,275.5406,195.8534,272.4404,200.5851,267.7087,197.4848,273.46,205.48" style="stroke:#181818;stroke-width:1;"/></g><!--link UserView to UserViewModel--><g id="link_UserView_UserViewModel"><path codeLine="98" d="M1845.68,114.71 C1832.46,126.57 1816.09,139.02 1799,146.59 C1702.96,189.16 1402.3083,218.8897 1263.0183,230.7797 " fill="none" id="UserView-to-UserViewModel" style="stroke:#181818;stroke-width:1;"/><polygon fill="#181818" points="1257.04,231.29,1266.3476,234.51,1262.0219,230.8647,1265.6672,226.539,1257.04,231.29" style="stroke:#181818;stroke-width:1;"/></g><!--link UserPhotosView to UserViewModel--><g id="link_UserPhotosView_UserViewModel"><path codeLine="99" d="M1209.27,114.75 C1204.43,141.25 1198.6359,173.0772 1193.8059,199.5772 " fill="none" id="UserPhotosView-to-UserViewModel" style="stroke:#181818;stroke-width:1;"/><polygon fill="#181818" points="1192.73,205.48,1198.279,197.3431,1193.6266,200.561,1190.4086,195.9086,1192.73,205.48" style="stroke:#181818;stroke-width:1;"/></g><!--link UserPostsView to UserPostsViewModel--><g id="link_UserPostsView_UserPostsViewModel"><path codeLine="100" d="M582.24,114.75 C590.87,141.25 601.294,173.2743 609.914,199.7743 " fill="none" id="UserPostsView-to-UserPostsViewModel" style="stroke:#181818;stroke-width:1;"/><polygon fill="#181818" points="611.77,205.48,612.7899,195.6841,610.2234,200.7252,605.1822,198.1587,611.77,205.48" style="stroke:#181818;stroke-width:1;"/></g><!--link FullScreenImageView to UserViewModel--><g id="link_FullScreenImageView_UserViewModel"><path codeLine="101" d="M1367.24,114.93 C1328.17,141.37 1277.7195,175.5078 1238.6695,201.9278 " fill="none" id="FullScreenImageView-to-UserViewModel" style="stroke:#181818;stroke-width:1;"/><polygon fill="#181818" points="1233.7,205.29,1243.3957,203.5597,1237.8412,202.4882,1238.9128,196.9337,1233.7,205.29" style="stroke:#181818;stroke-width:1;"/></g><!--link FullScreenImageDetailedView to UserViewModel--><g id="link_FullScreenImageDetailedView_UserViewModel"><path codeLine="102" d="M1598.03,114.87 C1574.8,125.8 1548.04,137.56 1523,146.59 C1433.09,179.04 1331.7879,204.5278 1263.0779,220.2978 " fill="none" id="FullScreenImageDetailedView-to-UserViewModel" style="stroke:#181818;stroke-width:1;"/><polygon fill="#181818" points="1257.23,221.64,1266.8967,223.5253,1262.1033,220.5215,1265.1071,215.7281,1257.23,221.64" style="stroke:#181818;stroke-width:1;"/></g><!--link ModelData to User--><g id="link_ModelData_User"><path codeLine="104" d="M483.17,278.4 C513.36,309.65 550.9011,348.5049 579.7011,378.3149 " fill="none" id="ModelData-to-User" style="stroke:#181818;stroke-width:1;"/><polygon fill="#181818" points="583.87,382.63,580.4934,373.3781,580.3959,379.0341,574.7399,378.9366,583.87,382.63" style="stroke:#181818;stroke-width:1;"/></g><!--link LoginViewModel to User--><g id="link_LoginViewModel_User"><path codeLine="105" d="M146.57,278.65 C159.26,287.31 173.21,295.79 187,302.19 C326.84,367.04 503.9424,399.5704 577.9124,411.1704 " fill="none" id="LoginViewModel-to-User" style="stroke:#181818;stroke-width:1;"/><polygon fill="#181818" points="583.84,412.1,575.5684,406.754,578.9004,411.3254,574.329,414.6574,583.84,412.1" style="stroke:#181818;stroke-width:1;"/></g><!--link PostViewModel to Post--><g id="link_PostViewModel_Post"><path codeLine="106" d="M980.72,270.44 C965.77,282.64 947.19,295.29 928,302.19 C897.63,313.09 810.27,292.93 783,310.19 C767.14,320.22 758.0818,330.8691 749.3818,347.4191 " fill="none" id="PostViewModel-to-Post" style="stroke:#181818;stroke-width:1;"/><polygon fill="#181818" points="746.59,352.73,754.3184,346.6249,748.9165,348.3042,747.2371,342.9024,746.59,352.73" style="stroke:#181818;stroke-width:1;"/></g><!--link AddPostViewModel to Post--><g id="link_AddPostViewModel_Post"><path codeLine="107" d="M807.62,270.2 C799.74,282.55 790.77,296.93 783,310.19 C775,323.83 769.5896,333.3762 761.8596,347.5062 " fill="none" id="AddPostViewModel-to-Post" style="stroke:#181818;stroke-width:1;"/><polygon fill="#181818" points="758.98,352.77,766.8087,346.794,761.3797,348.3835,759.7902,342.9545,758.98,352.77" style="stroke:#181818;stroke-width:1;"/></g><!--link ProfileViewModel to User--><g id="link_ProfileViewModel_User"><path codeLine="108" d="M323.59,270.25 C339.17,280.91 357.07,292.56 374,302.19 C446.6,343.46 530.9552,380.7698 578.4552,400.8898 " fill="none" id="ProfileViewModel-to-User" style="stroke:#181818;stroke-width:1;"/><polygon fill="#181818" points="583.98,403.23,577.2529,396.0365,579.376,401.2798,574.1327,403.4029,583.98,403.23" style="stroke:#181818;stroke-width:1;"/></g><!--link UserPostsViewModel to Post--><g id="link_UserPostsViewModel_Post"><path codeLine="109" d="M642.38,270.2 C650.26,282.55 659.23,296.93 667,310.19 C675,323.83 680.4104,333.3762 688.1404,347.5062 " fill="none" id="UserPostsViewModel-to-Post" style="stroke:#181818;stroke-width:1;"/><polygon fill="#181818" points="691.02,352.77,690.2098,342.9545,688.6203,348.3835,683.1913,346.794,691.02,352.77" style="stroke:#181818;stroke-width:1;"/></g><!--link UserViewModel to User--><g id="link_UserViewModel_User"><path codeLine="110" d="M1153.8,270.46 C1138.62,282.81 1119.66,295.59 1100,302.19 C1077.24,309.82 688.19,297.2 668,310.19 C647.53,323.36 637.0334,341.5234 629.5634,363.3434 " fill="none" id="UserViewModel-to-User" style="stroke:#181818;stroke-width:1;"/><polygon fill="#181818" points="627.62,369.02,634.3194,361.8007,629.2395,364.2895,626.7507,359.2096,627.62,369.02" style="stroke:#181818;stroke-width:1;"/></g><!--link UserViewModel to ImageMeta--><g id="link_UserViewModel_ImageMeta"><path codeLine="111" d="M1147.74,270.51 C1112.64,298.79 1065.4926,336.7761 1026.1526,368.4661 " fill="none" id="UserViewModel-to-ImageMeta" style="stroke:#181818;stroke-width:1;"/><polygon fill="#181818" points="1021.48,372.23,1030.9981,369.6991,1025.3738,369.0934,1025.9795,363.4691,1021.48,372.23" style="stroke:#181818;stroke-width:1;"/></g><!--SRC=[dLHTIyCm57tFhoXxKcH_GH27E70m7FegiRbhmzAq92bpoFwxJThceqqgsgVcd7jkqjkJ8q-KDrZWAcjmVi857DI5GIOWLvWN310Qy6prJk6yohvHrZqvmr9cZpLNm9Kc1bm_TuJAXk7BpQs1hfxWfIuedvOp3Gx51X1GKAb0H1eyrnKajjlNKic8HEDR1LL24b4y4AAPwJwo_QoeIcZseZvIbZnRpqPqRn94GgIfX69VrggMgSqCcLBgAVrnWayjOuTS0F1jrJaXeJRSx-eDADoDWYnrwMlSKQuJ5-vg0Yoqee4sM66lvxhjFbXZ3g6ois01PClJtZIj_clGqJYp9aTGUPcQiEUucH3ttBBdPggs8LZ1ik-i5-A7jIKBjaqhepylykDqhV_FA77l75VWLb1rfeWEFALNL36lGTx7bLUhpIP3ltmC3VmzNa6sBDWbxpx4hIfPk0KP3UTtCBRUmSIUWhd5cH9LkcK9j2Zzet82NswYVlAkr_VE_iX5hCP3KoCRdveB78TiJCufFmyrEtKhyiFFo2V6H3RbD1ju1qtYB55WKslaG- -YM4JDMor5qRmQkKmPIJG92Ok7jtSS8PhTQylCxgvj5RcPLXLUkq0ImjPlFm00]--></g></svg>